<?xml version="1.0" encoding="UTF-8" standalone="no"?>
<!DOCTYPE svg PUBLIC "-//W3C//DTD SVG 1.1//EN" "http://www.w3.org/Graphics/SVG/1.1/DTD/svg11.dtd">
<svg version="1.1" xmlns="http://www.w3.org/2000/svg" xmlns:xlink="http://www.w3.org/1999/xlink" preserveAspectRatio="xMidYMid meet" viewBox="199.723915188658 137.27843550599297 202.3216877826074 295.0678787123761" width="202.32" height="295.07"><defs><path d="M394.59 346.82C394.77 354.82 395.01 362.8 391.58 370.65C387.79 379.31 383.64 390.05 378.04 398.22C364.74 417.6 344.7 431.83 323.39 432.33C284.99 433.24 256.33 387.94 255.43 350.11C254.54 312.28 284.99 280.83 323.39 279.92C361.79 279.02 393.69 308.99 394.59 346.82Z" id="ahn5NICDh"></path><path d="M307.91 346.33C307.91 352.24 302.25 357.04 295.27 357.04C288.3 357.04 282.63 352.24 282.63 346.33C282.63 340.41 288.3 335.61 295.27 335.61C302.25 335.61 307.91 340.41 307.91 346.33Z" id="aafrBBf0F"></path><path d="M363.11 346.33C363.11 352.24 357.45 357.04 350.48 357.04C343.5 357.04 337.84 352.24 337.84 346.33C337.84 340.41 343.5 335.61 350.48 335.61C357.45 335.61 363.11 340.41 363.11 346.33Z" id="b21sTGQbm1"></path><path d="M304.36 346.33C304.36 350.84 300.29 354.51 295.27 354.51C290.25 354.51 286.18 350.84 286.18 346.33C286.18 341.81 290.25 338.15 295.27 338.15C300.29 338.15 304.36 341.81 304.36 346.33Z" id="a2ug4JBruS"></path><path d="M359.57 346.33C359.57 350.84 355.49 354.51 350.48 354.51C345.46 354.51 341.39 350.84 341.39 346.33C341.39 341.81 345.46 338.15 350.48 338.15C355.49 338.15 359.57 341.81 359.57 346.33Z" id="a55y8U4Xd"></path><path d="M302.11 342.2C302.11 344.09 300.57 345.63 298.69 345.63C296.8 345.63 295.27 344.09 295.27 342.2C295.27 340.3 296.8 338.77 298.69 338.77C300.57 338.77 302.11 340.3 302.11 342.2Z" id="a1f8b5EGp1"></path><path d="M349.89 342.2C349.89 344.09 348.36 345.63 346.47 345.63C344.58 345.63 343.05 344.09 343.05 342.2C343.05 340.3 344.58 338.77 346.47 338.77C348.36 338.77 349.89 340.3 349.89 342.2Z" id="f2bTxSmAU"></path><path d="M293.03 350.59C293.03 351.47 292.31 352.18 291.44 352.18C290.56 352.18 289.84 351.47 289.84 350.59C289.84 349.71 290.56 349 291.44 349C292.31 349 293.03 349.71 293.03 350.59Z" id="i4boJS6cmY"></path><path d="M355.17 350.59C355.17 351.47 354.46 352.18 353.58 352.18C352.7 352.18 351.99 351.47 351.99 350.59C351.99 349.71 352.7 349 353.58 349C354.46 349 355.17 349.71 355.17 350.59Z" id="e2tcJlGvcR"></path><path d="" id="aDL9XpVVr"></path><path d="M312.03 327.99L282.63 331.17" id="cl6q8Lgq9"></path><path d="M335.83 309.01L368.16 315.48" id="mT4KnWUe5"></path><path d="M260.98 325.41L266.63 310.1L277.91 295.85L296.51 288.26L317.18 286.32L335.02 287.45L354.56 293.46L370.26 300.7L381.21 311.42L391.87 327.97L394.61 359.11L402.05 309.01C391 295.48 384.1 287.03 381.34 283.65C375.2 276.13 366.96 270.62 357.67 267.82C350.64 265.71 348.26 264.99 342.34 263.2C329.43 259.31 315.64 259.37 302.76 263.36C292.04 266.69 289.72 267.41 281.52 269.95C261.77 276.08 247.33 293.05 244.44 313.53C242.69 325.88 238.34 356.77 231.36 406.2C257.4 414.87 273.68 420.3 280.18 422.47C280.29 422.5 280.4 422.41 280.38 422.3C277.79 409.38 271.32 377.08 260.98 325.41Z" id="bYgVCWlrU"></path><path d="M396.85 370.46C393.83 378.59 388.73 384.21 385.48 383C382.22 381.79 382.02 374.2 385.04 366.07C388.06 357.94 393.16 352.33 396.42 353.54C399.68 354.75 399.87 362.33 396.85 370.46Z" id="cxMm49a1"></path><path d="M389.93 379.32C389.93 380.42 389.03 381.32 387.93 381.32C386.82 381.32 385.93 380.42 385.93 379.32C385.93 378.22 386.82 377.32 387.93 377.32C389.03 377.32 389.93 378.22 389.93 379.32Z" id="bk75QPt1r"></path><path d="M392.79 375.68C392.79 376.37 392.23 376.93 391.54 376.93C390.85 376.93 390.29 376.37 390.29 375.68C390.29 374.99 390.85 374.43 391.54 374.43C392.23 374.43 392.79 374.99 392.79 375.68Z" id="c6HjzoOF8"></path><path d="M395.18 371.92C395.18 372.61 394.62 373.17 393.93 373.17C393.24 373.17 392.68 372.61 392.68 371.92C392.68 371.23 393.24 370.67 393.93 370.67C394.62 370.67 395.18 371.23 395.18 371.92Z" id="asKyZAjEF"></path><path d="M398.15 357.3C398.15 357.85 397.7 358.3 397.15 358.3C396.59 358.3 396.15 357.85 396.15 357.3C396.15 356.74 396.59 356.3 397.15 356.3C397.7 356.3 398.15 356.74 398.15 357.3Z" id="d7UL89Ssx"></path><path d="M389.18 379.32C389.18 380.01 388.62 380.57 387.93 380.57C387.24 380.57 386.68 380.01 386.68 379.32C386.68 378.63 387.24 378.07 387.93 378.07C388.62 378.07 389.18 378.63 389.18 379.32Z" id="b3LHmNUGF"></path><path d="M392.29 375.68C392.29 376.09 391.96 376.43 391.54 376.43C391.13 376.43 390.79 376.09 390.79 375.68C390.79 375.26 391.13 374.93 391.54 374.93C391.96 374.93 392.29 375.26 392.29 375.68Z" id="e5LwsLD8Mb"></path><path d="M394.26 363.64C394.44 366.58 393.66 367.16 393.16 369.04C392 373.4 388.48 375.79 387.16 375.44C385.83 375.08 385.7 371.25 386.86 366.89C388.02 362.53 391.34 360.33 392.66 360.68C393.42 360.88 394.07 360.69 394.26 363.64Z" id="nrwK3ZalZ"></path><path d="M389.23 367.56C388.73 369.27 387.65 370.47 386.8 370.22C385.96 369.98 385.68 368.39 386.17 366.68C386.66 364.96 387.75 363.77 388.59 364.01C389.44 364.25 389.72 365.84 389.23 367.56Z" id="b6MWnHcHt"></path><path d="M323.44 202.24C329.37 226.41 306.68 250.52 272.8 256.06C238.92 261.6 206.6 246.49 200.67 222.32C194.73 198.16 217.42 174.05 251.3 168.51C285.18 162.97 317.5 178.08 323.44 202.24Z" id="b1bmoTphs"></path><path d="M334.19 206.61C346.75 204.56 358.77 212.51 361.81 224.86C365.03 238 369.33 255.51 372.55 268.64C375.45 280.44 367.68 292.2 355.68 294.16C335.58 297.45 297.51 303.68 277.4 306.97C264.84 309.02 252.82 301.08 249.78 288.72C246.56 275.59 242.26 258.08 239.04 244.94C236.14 233.14 243.91 221.38 255.9 219.42C276.01 216.13 314.08 209.9 334.19 206.61Z" id="bkc39kIM0"></path><path d="M374.3 275.75C376.81 285.99 351.35 298.81 317.47 304.35C283.59 309.89 254.04 306.07 251.53 295.83C249.02 285.59 274.48 272.78 308.36 267.24C342.24 261.7 371.79 265.51 374.3 275.75Z" id="a5hL6N1vI"></path><path d="M238.59 186.33C222.39 190.84 213.71 202.72 212.54 221.99" id="djubPhXPp"></path><path d="M389.54 191.43C395.47 215.59 372.78 239.71 338.91 245.25C305.03 250.79 272.7 235.67 266.77 211.51C260.84 187.35 283.53 163.24 317.41 157.7C351.29 152.15 383.61 167.27 389.54 191.43Z" id="c21n4ykMXY"></path><path d="M337.49 166.95C341.71 187.87 323.66 209.06 297.22 214.25C270.77 219.43 245.88 206.65 241.66 185.73C237.44 164.81 255.49 143.61 281.93 138.43C308.38 133.25 333.27 146.03 337.49 166.95Z" id="f3mGU7nT7B"></path></defs><g><g><g><use xlink:href="#ahn5NICDh" opacity="1" fill="#f9dac8" fill-opacity="1"></use></g><g><use xlink:href="#aafrBBf0F" opacity="1" fill="#ffffff" fill-opacity="1"></use></g><g><use xlink:href="#b21sTGQbm1" opacity="1" fill="#ffffff" fill-opacity="1"></use></g><g><use xlink:href="#a2ug4JBruS" opacity="1" fill="#3c1f00" fill-opacity="1"></use></g><g><use xlink:href="#a55y8U4Xd" opacity="1" fill="#3c1f00" fill-opacity="1"></use></g><g><use xlink:href="#a1f8b5EGp1" opacity="1" fill="#ffffff" fill-opacity="1"></use></g><g><use xlink:href="#f2bTxSmAU" opacity="1" fill="#ffffff" fill-opacity="1"></use></g><g><use xlink:href="#i4boJS6cmY" opacity="1" fill="#ffffff" fill-opacity="1"></use></g><g><use xlink:href="#e2tcJlGvcR" opacity="1" fill="#ffffff" fill-opacity="1"></use></g><g><g><use xlink:href="#aDL9XpVVr" opacity="1" fill-opacity="0" stroke="#d5acac" stroke-width="1" stroke-opacity="0.85"></use></g></g><g><g><use xlink:href="#cl6q8Lgq9" opacity="1" fill-opacity="0" stroke="#040404" stroke-width="3" stroke-opacity="0.85"></use></g></g><g><use xlink:href="#mT4KnWUe5" opacity="1" fill="#cf9c9c" fill-opacity="0.85"></use><g><use xlink:href="#mT4KnWUe5" opacity="1" fill-opacity="0" stroke="#000000" stroke-width="3" stroke-opacity="0.85"></use></g></g><g><use xlink:href="#bYgVCWlrU" opacity="1" fill="#000000" fill-opacity="1"></use><g><use xlink:href="#bYgVCWlrU" opacity="1" fill-opacity="0" stroke="#000000" stroke-width="1" stroke-opacity="0.85"></use></g></g><g><use xlink:href="#cxMm49a1" opacity="1" fill="#f9dac8" fill-opacity="1"></use></g><g><use xlink:href="#bk75QPt1r" opacity="1" fill="#cfcdcd" fill-opacity="1"></use></g><g><use xlink:href="#c6HjzoOF8" opacity="1" fill="#cfcdcd" fill-opacity="1"></use></g><g><use xlink:href="#asKyZAjEF" opacity="1" fill="#cfcdcd" fill-opacity="1"></use></g><g><use xlink:href="#d7UL89Ssx" opacity="1" fill="#cfcdcd" fill-opacity="1"></use></g><g><use xlink:href="#b3LHmNUGF" opacity="1" fill="#f9dac8" fill-opacity="1"></use></g><g><use xlink:href="#e5LwsLD8Mb" opacity="1" fill="#f9dac8" fill-opacity="1"></use></g><g><use xlink:href="#nrwK3ZalZ" opacity="1" fill="#f8d4bf" fill-opacity="1"></use></g><g><use xlink:href="#b6MWnHcHt" opacity="1" fill="#f9dac8" fill-opacity="1"></use></g></g><g><g><use xlink:href="#b1bmoTphs" opacity="1" fill="#fef5f5" fill-opacity="1"></use><g><use xlink:href="#b1bmoTphs" opacity="1" fill-opacity="0" stroke="#000000" stroke-width="1" stroke-opacity="0"></use></g></g><g><use xlink:href="#bkc39kIM0" opacity="1" fill="#fef5f5" fill-opacity="1"></use><g><use xlink:href="#bkc39kIM0" opacity="1" fill-opacity="0" stroke="#000000" stroke-width="1" stroke-opacity="0"></use></g></g><g><use xlink:href="#a5hL6N1vI" opacity="1" fill="#fef5f5" fill-opacity="1"></use><g><use xlink:href="#a5hL6N1vI" opacity="1" fill-opacity="0" stroke="#000000" stroke-width="1" stroke-opacity="0"></use></g></g><g><use xlink:href="#djubPhXPp" opacity="0.32" fill="#fef5f5" fill-opacity="1"></use><g><use xlink:href="#djubPhXPp" opacity="0.32" fill-opacity="0" stroke="#000000" stroke-width="2" stroke-opacity="1"></use></g></g><g><use xlink:href="#c21n4ykMXY" opacity="1" fill="#fef5f5" fill-opacity="1"></use><g><use xlink:href="#c21n4ykMXY" opacity="1" fill-opacity="0" stroke="#000000" stroke-width="1" stroke-opacity="0"></use></g></g><g><use xlink:href="#f3mGU7nT7B" opacity="1" fill="#fef5f5" fill-opacity="1"></use></g></g></g></svg>