<?xml version="1.0" encoding="UTF-8" standalone="no"?>
<!DOCTYPE svg PUBLIC "-//W3C//DTD SVG 1.1//EN" "http://www.w3.org/Graphics/SVG/1.1/DTD/svg11.dtd">
<svg version="1.1" xmlns="http://www.w3.org/2000/svg" xmlns:xlink="http://www.w3.org/1999/xlink" preserveAspectRatio="xMidYMid meet" viewBox="189.91267721206526 97.43915803131736 170.7200983714652 228.2841385722784" width="170.72" height="228.28"><defs><path d="M353.17 240.2C353.36 248.2 353.6 256.18 350.17 264.02C346.38 272.69 342.23 283.43 336.63 291.59C323.33 310.98 303.29 325.21 281.98 325.71C243.58 326.62 214.91 281.32 214.02 243.49C213.13 205.66 243.58 174.21 281.98 173.3C320.38 172.39 352.28 202.37 353.17 240.2Z" id="bmTsd0nqq"></path><path d="M266.5 239.71C266.5 245.62 260.83 250.42 253.86 250.42C246.88 250.42 241.22 245.62 241.22 239.71C241.22 233.79 246.88 228.99 253.86 228.99C260.83 228.99 266.5 233.79 266.5 239.71Z" id="aPHjLC1x9"></path><path d="M321.7 239.71C321.7 245.62 316.04 250.42 309.06 250.42C302.09 250.42 296.43 245.62 296.43 239.71C296.43 233.79 302.09 228.99 309.06 228.99C316.04 228.99 321.7 233.79 321.7 239.71Z" id="b1Q5c9SdVG"></path><path d="M262.95 239.71C262.95 244.22 258.88 247.89 253.86 247.89C248.84 247.89 244.77 244.22 244.77 239.71C244.77 235.19 248.84 231.52 253.86 231.52C258.88 231.52 262.95 235.19 262.95 239.71Z" id="bcc9t8Oq3"></path><path d="M318.15 239.71C318.15 244.22 314.08 247.89 309.06 247.89C304.05 247.89 299.97 244.22 299.97 239.71C299.97 235.19 304.05 231.52 309.06 231.52C314.08 231.52 318.15 235.19 318.15 239.71Z" id="i18AuA58XG"></path><path d="M260.69 235.57C260.69 237.47 259.16 239 257.28 239C255.39 239 253.86 237.47 253.86 235.57C253.86 233.68 255.39 232.15 257.28 232.15C259.16 232.15 260.69 233.68 260.69 235.57Z" id="fe8uGahjH"></path><path d="M308.47 235.57C308.47 237.47 306.94 239 305.06 239C303.17 239 301.64 237.47 301.64 235.57C301.64 233.68 303.17 232.15 305.06 232.15C306.94 232.15 308.47 233.68 308.47 235.57Z" id="b5zSva42pX"></path><path d="M251.61 243.97C251.61 244.85 250.9 245.56 250.02 245.56C249.14 245.56 248.43 244.85 248.43 243.97C248.43 243.09 249.14 242.38 250.02 242.38C250.9 242.38 251.61 243.09 251.61 243.97Z" id="fC23akPAs"></path><path d="M313.76 243.97C313.76 244.85 313.05 245.56 312.17 245.56C311.29 245.56 310.58 244.85 310.58 243.97C310.58 243.09 311.29 242.38 312.17 242.38C313.05 242.38 313.76 243.09 313.76 243.97Z" id="d3JQ8EWxY7"></path><path d="" id="aum4cGW46"></path><path d="M270.62 221.37L241.22 224.55" id="bkSXCM42d"></path><path d="M294.42 202.39L326.74 208.85" id="a2XMkryfX5"></path><path d="M219.56 218.78L225.22 203.47L236.5 189.23L255.09 181.64L275.76 179.7L293.61 180.83L313.15 186.84L328.84 194.08L339.79 204.8L350.45 221.34L353.19 252.49L360.63 202.39C349.59 188.86 342.69 180.41 339.93 177.03C333.79 169.51 325.55 164 316.26 161.2C309.23 159.08 306.84 158.36 300.93 156.58C288.01 152.69 274.23 152.74 261.35 156.74C250.63 160.06 248.31 160.78 240.11 163.33C220.36 169.45 205.91 186.43 203.02 206.9C201.28 219.26 196.92 250.15 189.95 299.57C215.99 308.25 232.26 313.67 238.77 315.84C238.88 315.88 238.99 315.79 238.96 315.67C236.38 302.75 229.91 270.46 219.56 218.78Z" id="a1sxCSFJN"></path><path d="M355.44 263.84C352.42 271.97 347.32 277.59 344.06 276.38C340.8 275.17 340.61 267.58 343.63 259.45C346.65 251.32 351.75 245.7 355.01 246.91C358.27 248.12 358.46 255.71 355.44 263.84Z" id="aB8hWU0UO"></path><path d="M348.52 272.7C348.52 273.8 347.62 274.7 346.52 274.7C345.41 274.7 344.52 273.8 344.52 272.7C344.52 271.59 345.41 270.7 346.52 270.7C347.62 270.7 348.52 271.59 348.52 272.7Z" id="c640muaMLv"></path><path d="M351.38 269.05C351.38 269.74 350.82 270.3 350.13 270.3C349.44 270.3 348.88 269.74 348.88 269.05C348.88 268.36 349.44 267.8 350.13 267.8C350.82 267.8 351.38 268.36 351.38 269.05Z" id="adZgkCoqk"></path><path d="M353.77 265.29C353.77 265.98 353.21 266.54 352.52 266.54C351.83 266.54 351.27 265.98 351.27 265.29C351.27 264.6 351.83 264.04 352.52 264.04C353.21 264.04 353.77 264.6 353.77 265.29Z" id="a7rGvRwvY"></path><path d="M356.73 250.67C356.73 251.23 356.29 251.67 355.73 251.67C355.18 251.67 354.73 251.23 354.73 250.67C354.73 250.12 355.18 249.67 355.73 249.67C356.29 249.67 356.73 250.12 356.73 250.67Z" id="fRH9kqI9K"></path><path d="M347.77 272.7C347.77 273.39 347.21 273.95 346.52 273.95C345.83 273.95 345.27 273.39 345.27 272.7C345.27 272.01 345.83 271.45 346.52 271.45C347.21 271.45 347.77 272.01 347.77 272.7Z" id="e1UdNg0FL0"></path><path d="M350.88 269.05C350.88 269.47 350.54 269.8 350.13 269.8C349.72 269.8 349.38 269.47 349.38 269.05C349.38 268.64 349.72 268.3 350.13 268.3C350.54 268.3 350.88 268.64 350.88 269.05Z" id="l3zi22KJwt"></path><path d="M352.85 257.02C353.03 259.96 352.24 260.54 351.75 262.41C350.58 266.78 347.07 269.16 345.75 268.81C344.42 268.46 344.29 264.63 345.45 260.27C346.61 255.9 349.92 253.7 351.25 254.06C352 254.26 352.66 254.07 352.85 257.02Z" id="dn6HOBdYw"></path><path d="M347.82 260.93C347.32 262.65 346.24 263.84 345.39 263.6C344.55 263.36 344.26 261.77 344.76 260.05C345.25 258.34 346.34 257.15 347.18 257.39C348.03 257.63 348.31 259.22 347.82 260.93Z" id="e1h6ik2tcF"></path><path d="M351.5 168.29C354.79 207.31 316.98 171.33 274.47 175.08C242.58 177.89 217.05 202.25 204.89 197.79C200.83 196.31 198.26 191.62 197.44 181.87C194.14 142.85 225.98 108.13 268.49 104.38C311.01 100.63 348.2 129.27 351.5 168.29Z" id="d1Se7oErNa"></path><path d="M273.8 97.47C278.69 97.04 283 100.67 283.42 105.56C284.37 116.78 286.46 141.56 287.41 152.78C287.82 157.69 284.19 162 279.29 162.43C274.52 162.85 269.09 163.33 264.33 163.75C259.44 164.18 255.13 160.56 254.71 155.66C253.77 144.45 251.67 119.66 250.72 108.44C250.31 103.54 253.94 99.22 258.84 98.79C263.61 98.37 269.04 97.89 273.8 97.47Z" id="bfYjDCfrV"></path><path d="M355.28 166.79C357.41 166.6 359.3 168.19 359.48 170.33C359.78 173.85 360.32 180.33 360.62 183.8C360.81 186.08 359.12 188.09 356.84 188.29C323.76 191.2 228.13 199.63 194.92 202.55C192.98 202.73 191.27 201.29 191.1 199.35C190.8 195.75 190.22 188.93 189.93 185.44C189.74 183.2 191.4 181.23 193.64 181.03C226.74 178.12 322.14 169.71 355.28 166.79Z" id="g2ph4y2z5Z"></path></defs><g><g><g><use xlink:href="#bmTsd0nqq" opacity="1" fill="#f9dac8" fill-opacity="1"></use></g><g><use xlink:href="#aPHjLC1x9" opacity="1" fill="#ffffff" fill-opacity="1"></use></g><g><use xlink:href="#b1Q5c9SdVG" opacity="1" fill="#ffffff" fill-opacity="1"></use></g><g><use xlink:href="#bcc9t8Oq3" opacity="1" fill="#3c1f00" fill-opacity="1"></use></g><g><use xlink:href="#i18AuA58XG" opacity="1" fill="#3c1f00" fill-opacity="1"></use></g><g><use xlink:href="#fe8uGahjH" opacity="1" fill="#ffffff" fill-opacity="1"></use></g><g><use xlink:href="#b5zSva42pX" opacity="1" fill="#ffffff" fill-opacity="1"></use></g><g><use xlink:href="#fC23akPAs" opacity="1" fill="#ffffff" fill-opacity="1"></use></g><g><use xlink:href="#d3JQ8EWxY7" opacity="1" fill="#ffffff" fill-opacity="1"></use></g><g><g><use xlink:href="#aum4cGW46" opacity="1" fill-opacity="0" stroke="#d5acac" stroke-width="1" stroke-opacity="0.85"></use></g></g><g><g><use xlink:href="#bkSXCM42d" opacity="1" fill-opacity="0" stroke="#040404" stroke-width="3" stroke-opacity="0.85"></use></g></g><g><use xlink:href="#a2XMkryfX5" opacity="1" fill="#cf9c9c" fill-opacity="0.85"></use><g><use xlink:href="#a2XMkryfX5" opacity="1" fill-opacity="0" stroke="#000000" stroke-width="3" stroke-opacity="0.85"></use></g></g><g><use xlink:href="#a1sxCSFJN" opacity="1" fill="#000000" fill-opacity="1"></use><g><use xlink:href="#a1sxCSFJN" opacity="1" fill-opacity="0" stroke="#000000" stroke-width="1" stroke-opacity="0.85"></use></g></g><g><use xlink:href="#aB8hWU0UO" opacity="1" fill="#f9dac8" fill-opacity="1"></use></g><g><use xlink:href="#c640muaMLv" opacity="1" fill="#cfcdcd" fill-opacity="1"></use></g><g><use xlink:href="#adZgkCoqk" opacity="1" fill="#cfcdcd" fill-opacity="1"></use></g><g><use xlink:href="#a7rGvRwvY" opacity="1" fill="#cfcdcd" fill-opacity="1"></use></g><g><use xlink:href="#fRH9kqI9K" opacity="1" fill="#cfcdcd" fill-opacity="1"></use></g><g><use xlink:href="#e1UdNg0FL0" opacity="1" fill="#f9dac8" fill-opacity="1"></use></g><g><use xlink:href="#l3zi22KJwt" opacity="1" fill="#f9dac8" fill-opacity="1"></use></g><g><use xlink:href="#dn6HOBdYw" opacity="1" fill="#f8d4bf" fill-opacity="1"></use></g><g><use xlink:href="#e1h6ik2tcF" opacity="1" fill="#f9dac8" fill-opacity="1"></use></g></g><g><g><use xlink:href="#d1Se7oErNa" opacity="1" fill="#ffcc00" fill-opacity="1"></use></g><g><use xlink:href="#bfYjDCfrV" opacity="1" fill="#e1b400" fill-opacity="1"></use></g><g><use xlink:href="#g2ph4y2z5Z" opacity="1" fill="#ffcc00" fill-opacity="1"></use></g></g></g></svg>