<?xml version="1.0" encoding="UTF-8" standalone="no"?>
<!DOCTYPE svg PUBLIC "-//W3C//DTD SVG 1.1//EN" "http://www.w3.org/Graphics/SVG/1.1/DTD/svg11.dtd">
<svg version="1.1" xmlns="http://www.w3.org/2000/svg" xmlns:xlink="http://www.w3.org/1999/xlink" preserveAspectRatio="xMidYMid meet" viewBox="222.64649517626924 199.16184723058694 170.6833895395897 208.78435460568392" width="400" height="482.26"><defs><path d="M385.87 313.65C386.06 321.65 386.29 329.63 382.87 337.47C379.08 346.14 374.93 356.88 369.33 365.04C356.02 384.43 335.99 398.66 314.68 399.16C276.28 400.07 247.61 354.77 246.72 316.94C245.82 279.11 276.28 247.66 314.68 246.75C353.08 245.84 384.98 275.82 385.87 313.65Z" id="d25ukZYwiP"></path><path d="M299.19 313.16C299.19 319.07 293.53 323.87 286.56 323.87C279.58 323.87 273.92 319.07 273.92 313.16C273.92 307.24 279.58 302.44 286.56 302.44C293.53 302.44 299.19 307.24 299.19 313.16Z" id="a26wyTwfGs"></path><path d="M354.4 313.16C354.4 319.07 348.74 323.87 341.76 323.87C334.79 323.87 329.12 319.07 329.12 313.16C329.12 307.24 334.79 302.44 341.76 302.44C348.74 302.44 354.4 307.24 354.4 313.16Z" id="dvbQ0WrBr"></path><path d="M295.65 313.16C295.65 317.67 291.57 321.34 286.56 321.34C281.54 321.34 277.47 317.67 277.47 313.16C277.47 308.64 281.54 304.97 286.56 304.97C291.57 304.97 295.65 308.64 295.65 313.16Z" id="d28M5fTtLs"></path><path d="M350.85 313.16C350.85 317.67 346.78 321.34 341.76 321.34C336.74 321.34 332.67 317.67 332.67 313.16C332.67 308.64 336.74 304.97 341.76 304.97C346.78 304.97 350.85 308.64 350.85 313.16Z" id="bwV4xHXk"></path><path d="M293.39 309.02C293.39 310.92 291.86 312.45 289.97 312.45C288.09 312.45 286.56 310.92 286.56 309.02C286.56 307.13 288.09 305.6 289.97 305.6C291.86 305.6 293.39 307.13 293.39 309.02Z" id="aZ7yvJUg"></path><path d="M341.17 309.02C341.17 310.92 339.64 312.45 337.75 312.45C335.87 312.45 334.34 310.92 334.34 309.02C334.34 307.13 335.87 305.6 337.75 305.6C339.64 305.6 341.17 307.13 341.17 309.02Z" id="j4fgH53vV4"></path><path d="M284.31 317.42C284.31 318.3 283.6 319.01 282.72 319.01C281.84 319.01 281.13 318.3 281.13 317.42C281.13 316.54 281.84 315.83 282.72 315.83C283.6 315.83 284.31 316.54 284.31 317.42Z" id="f2yCxlG8in"></path><path d="M346.46 317.42C346.46 318.3 345.74 319.01 344.87 319.01C343.99 319.01 343.28 318.3 343.28 317.42C343.28 316.54 343.99 315.83 344.87 315.83C345.74 315.83 346.46 316.54 346.46 317.42Z" id="a1957JGv3y"></path><path d="" id="dtP8YzxEq"></path><path d="M303.32 294.82L273.92 298" id="b6DWWxoFYB"></path><path d="M327.11 275.84L359.44 282.3" id="c790KDIqZ"></path><path d="M252.26 292.23L257.92 276.93L269.2 262.68L287.79 255.09L308.46 253.15L326.3 254.28L345.84 260.29L361.54 267.53L372.49 278.25L383.15 294.8L385.89 325.94L393.33 275.84C382.29 262.31 375.38 253.86 372.62 250.48C366.49 242.96 358.25 237.45 348.96 234.65C341.93 232.53 339.54 231.81 333.62 230.03C320.71 226.14 306.93 226.19 294.04 230.19C283.33 233.51 281.01 234.23 272.8 236.78C253.05 242.9 238.61 259.88 235.72 280.35C233.98 292.71 229.62 323.6 222.65 373.02C248.69 381.7 264.96 387.12 271.47 389.29C271.58 389.33 271.68 389.24 271.66 389.12C269.07 376.21 262.61 343.91 252.26 292.23Z" id="a2x6S9S8Ok"></path><path d="M388.14 337.29C385.12 345.42 380.02 351.04 376.76 349.83C373.5 348.62 373.31 341.03 376.33 332.9C379.35 324.77 384.44 319.15 387.7 320.36C390.96 321.57 391.16 329.16 388.14 337.29Z" id="a2qBd7JWhY"></path><path d="M381.21 346.15C381.21 347.25 380.32 348.15 379.21 348.15C378.11 348.15 377.21 347.25 377.21 346.15C377.21 345.04 378.11 344.15 379.21 344.15C380.32 344.15 381.21 345.04 381.21 346.15Z" id="h4uVhhaPu3"></path><path d="M384.08 342.5C384.08 343.19 383.52 343.75 382.83 343.75C382.14 343.75 381.58 343.19 381.58 342.5C381.58 341.81 382.14 341.25 382.83 341.25C383.52 341.25 384.08 341.81 384.08 342.5Z" id="eGRKWbz2q"></path><path d="M386.46 338.74C386.46 339.43 385.9 339.99 385.21 339.99C384.52 339.99 383.96 339.43 383.96 338.74C383.96 338.05 384.52 337.49 385.21 337.49C385.9 337.49 386.46 338.05 386.46 338.74Z" id="bOjY50tNq"></path><path d="M389.43 324.12C389.43 324.68 388.98 325.12 388.43 325.12C387.88 325.12 387.43 324.68 387.43 324.12C387.43 323.57 387.88 323.12 388.43 323.12C388.98 323.12 389.43 323.57 389.43 324.12Z" id="b1DMGoD6oF"></path><path d="M380.46 346.15C380.46 346.84 379.9 347.4 379.21 347.4C378.52 347.4 377.96 346.84 377.96 346.15C377.96 345.46 378.52 344.9 379.21 344.9C379.9 344.9 380.46 345.46 380.46 346.15Z" id="a2vdgO3oc"></path><path d="M383.58 342.5C383.58 342.92 383.24 343.25 382.83 343.25C382.41 343.25 382.08 342.92 382.08 342.5C382.08 342.09 382.41 341.75 382.83 341.75C383.24 341.75 383.58 342.09 383.58 342.5Z" id="a6mSk6UmT"></path><path d="M385.54 330.47C385.73 333.41 384.94 333.99 384.44 335.86C383.28 340.23 379.77 342.62 378.44 342.26C377.12 341.91 376.98 338.08 378.15 333.72C379.31 329.35 382.62 327.16 383.95 327.51C384.7 327.71 385.36 327.52 385.54 330.47Z" id="aaarGF3bE"></path><path d="M380.51 334.39C380.02 336.1 378.93 337.29 378.09 337.05C377.25 336.81 376.96 335.22 377.46 333.5C377.95 331.79 379.03 330.6 379.88 330.84C380.72 331.08 381.01 332.67 380.51 334.39Z" id="b2CVAik09l"></path><path d="M393.25 244.37C395.29 261.64 359.18 259.13 313.77 264.5C268.36 269.87 230.73 281.1 228.69 263.83C226.64 246.55 259.13 205.12 304.54 199.75C349.95 194.38 391.21 227.1 393.25 244.37Z" id="aKXywAFBi"></path><path d="M228.46 261.89L393.02 242.44C391.83 246.87 391.09 249.63 390.8 250.74C390.05 253.53 387.83 255.68 385.01 256.33C370.1 259.78 358.68 262.42 350.95 264.2C324.03 270.43 296.5 273.64 268.87 273.8C261.32 273.84 249.41 273.9 234.15 273.99C232.39 274 230.85 272.77 230.47 271.05C230.21 269.82 229.53 266.77 228.46 261.89Z" id="b5u9u46Y3H"></path><path d="M266.04 260.43C259.7 260.34 252.43 256.87 244.25 250.02L239.26 258.9C250.77 259.83 259.7 260.34 266.04 260.43Z" id="a17rne0rAg"></path><path d="M355.72 249.83C361.87 248.26 368.12 243.19 374.48 234.63L381.4 242.09C370.43 245.68 361.87 248.26 355.72 249.83Z" id="c1lYhfeBoO"></path><path d="M277.29 252.61C281.39 248.65 283.25 246.59 282.86 246.44C282.64 246.36 277.67 246.39 272.62 243.15C268.74 240.65 264.21 236.66 259.02 231.17L250.65 242.78L277.29 252.61Z" id="e6ZEEnflk"></path><path d="M345.52 244.54C340.61 241.64 338.33 240.08 338.68 239.85C338.87 239.71 343.71 238.58 347.86 234.25C351.05 230.92 354.53 225.98 358.29 219.43L369.14 228.77L345.52 244.54Z" id="e4a6UVK2dx"></path><path d="M291.29 244.46C294.99 243.61 297.68 242.27 299.36 240.44C301.04 238.62 298.77 228.58 292.55 210.34L275.66 218.84L291.29 244.46Z" id="a9TBaqavO"></path><path d="M326.09 240.35C322.29 240.38 319.37 239.7 317.31 238.32C315.24 236.94 315.11 226.65 316.91 207.46L335.32 211.79L326.09 240.35Z" id="a3Ay9cL9Nr"></path><path d="M267.46 377.16L271.07 381.92C271.93 383.24 274.05 385.2 277.41 387.82C278.49 388.65 281.54 390.57 282.28 390.86C300.38 397.8 318.84 408.09 347.35 390.86C358.19 384.31 372.4 361.55 375.94 335.06C378.62 315.07 377.53 289.93 372.68 259.64" id="et7aZUiYE"></path><path d="M321.22 397.95C323.16 397.95 324.72 399.52 324.72 401.45C324.72 402.15 324.72 400.75 324.72 401.45C324.72 403.38 323.16 404.95 321.22 404.95C318.58 404.95 314.13 404.95 311.49 404.95C309.55 404.95 307.99 403.38 307.99 401.45C307.99 400.75 307.99 402.15 307.99 401.45C307.99 399.52 309.55 397.95 311.49 397.95C314.13 397.95 318.58 397.95 321.22 397.95Z" id="e4cG98mu3l"></path><path d="M262.62 378.49L271.39 386.56L269.3 375.89L262.62 378.49Z" id="a2LQeBsNA"></path></defs><g><g><g><use xlink:href="#d25ukZYwiP" opacity="1" fill="#f9dac8" fill-opacity="1"></use></g><g><use xlink:href="#a26wyTwfGs" opacity="1" fill="#ffffff" fill-opacity="1"></use></g><g><use xlink:href="#dvbQ0WrBr" opacity="1" fill="#ffffff" fill-opacity="1"></use></g><g><use xlink:href="#d28M5fTtLs" opacity="1" fill="#3c1f00" fill-opacity="1"></use></g><g><use xlink:href="#bwV4xHXk" opacity="1" fill="#3c1f00" fill-opacity="1"></use></g><g><use xlink:href="#aZ7yvJUg" opacity="1" fill="#ffffff" fill-opacity="1"></use></g><g><use xlink:href="#j4fgH53vV4" opacity="1" fill="#ffffff" fill-opacity="1"></use></g><g><use xlink:href="#f2yCxlG8in" opacity="1" fill="#ffffff" fill-opacity="1"></use></g><g><use xlink:href="#a1957JGv3y" opacity="1" fill="#ffffff" fill-opacity="1"></use></g><g><g><use xlink:href="#dtP8YzxEq" opacity="1" fill-opacity="0" stroke="#d5acac" stroke-width="1" stroke-opacity="0.85"></use></g></g><g><g><use xlink:href="#b6DWWxoFYB" opacity="1" fill-opacity="0" stroke="#040404" stroke-width="3" stroke-opacity="0.85"></use></g></g><g><use xlink:href="#c790KDIqZ" opacity="1" fill="#cf9c9c" fill-opacity="0.85"></use><g><use xlink:href="#c790KDIqZ" opacity="1" fill-opacity="0" stroke="#000000" stroke-width="3" stroke-opacity="0.85"></use></g></g><g><use xlink:href="#a2x6S9S8Ok" opacity="1" fill="#000000" fill-opacity="1"></use><g><use xlink:href="#a2x6S9S8Ok" opacity="1" fill-opacity="0" stroke="#000000" stroke-width="1" stroke-opacity="0.85"></use></g></g><g><use xlink:href="#a2qBd7JWhY" opacity="1" fill="#f9dac8" fill-opacity="1"></use></g><g><use xlink:href="#h4uVhhaPu3" opacity="1" fill="#cfcdcd" fill-opacity="1"></use></g><g><use xlink:href="#eGRKWbz2q" opacity="1" fill="#cfcdcd" fill-opacity="1"></use></g><g><use xlink:href="#bOjY50tNq" opacity="1" fill="#cfcdcd" fill-opacity="1"></use></g><g><use xlink:href="#b1DMGoD6oF" opacity="1" fill="#cfcdcd" fill-opacity="1"></use></g><g><use xlink:href="#a2vdgO3oc" opacity="1" fill="#f9dac8" fill-opacity="1"></use></g><g><use xlink:href="#a6mSk6UmT" opacity="1" fill="#f9dac8" fill-opacity="1"></use></g><g><use xlink:href="#aaarGF3bE" opacity="1" fill="#f8d4bf" fill-opacity="1"></use></g><g><use xlink:href="#b2CVAik09l" opacity="1" fill="#f9dac8" fill-opacity="1"></use></g></g><g><g><use xlink:href="#aKXywAFBi" opacity="1" fill="#455c7b" fill-opacity="1"></use></g><g><use xlink:href="#b5u9u46Y3H" opacity="1" fill="#455c7b" fill-opacity="1"></use></g><g><use xlink:href="#a17rne0rAg" opacity="1" fill="#000000" fill-opacity="0.5"></use><g><use xlink:href="#a17rne0rAg" opacity="1" fill-opacity="0" stroke="#000000" stroke-width="1" stroke-opacity="0"></use></g></g><g><use xlink:href="#c1lYhfeBoO" opacity="1" fill="#000000" fill-opacity="0.5"></use><g><use xlink:href="#c1lYhfeBoO" opacity="1" fill-opacity="0" stroke="#000000" stroke-width="1" stroke-opacity="0"></use></g></g><g><use xlink:href="#e6ZEEnflk" opacity="1" fill="#000000" fill-opacity="0.5"></use><g><use xlink:href="#e6ZEEnflk" opacity="1" fill-opacity="0" stroke="#000000" stroke-width="1" stroke-opacity="0"></use></g></g><g><use xlink:href="#e4a6UVK2dx" opacity="1" fill="#000000" fill-opacity="0.5"></use><g><use xlink:href="#e4a6UVK2dx" opacity="1" fill-opacity="0" stroke="#000000" stroke-width="1" stroke-opacity="0"></use></g></g><g><use xlink:href="#a9TBaqavO" opacity="1" fill="#000000" fill-opacity="0.5"></use><g><use xlink:href="#a9TBaqavO" opacity="1" fill-opacity="0" stroke="#000000" stroke-width="1" stroke-opacity="0"></use></g></g><g><use xlink:href="#a3Ay9cL9Nr" opacity="1" fill="#000000" fill-opacity="0.5"></use><g><use xlink:href="#a3Ay9cL9Nr" opacity="1" fill-opacity="0" stroke="#000000" stroke-width="1" stroke-opacity="0"></use></g></g></g><g><g><use xlink:href="#et7aZUiYE" opacity="1" fill-opacity="0" stroke="#4e4848" stroke-width="4" stroke-opacity="0.99"></use></g></g><g><use xlink:href="#e4cG98mu3l" opacity="1" fill="#696060" fill-opacity="0.99"></use></g><g><use xlink:href="#a2LQeBsNA" opacity="1" fill="#000000" fill-opacity="0.99"></use><g><use xlink:href="#a2LQeBsNA" opacity="1" fill-opacity="0" stroke="#1f1d1d" stroke-width="0" stroke-opacity="0.99"></use></g></g></g></svg>