<?xml version="1.0" encoding="UTF-8" standalone="no"?>
<!DOCTYPE svg PUBLIC "-//W3C//DTD SVG 1.1//EN" "http://www.w3.org/Graphics/SVG/1.1/DTD/svg11.dtd">
<svg version="1.1" xmlns="http://www.w3.org/2000/svg" xmlns:xlink="http://www.w3.org/1999/xlink" preserveAspectRatio="xMidYMid meet" viewBox="230.28694461447145 125.91563832368595 170.6833895395897 172.02207374414522" width="170.68" height="172.02"><defs><path d="M393.51 212.42C393.7 220.41 393.94 228.39 390.51 236.24C386.72 244.9 382.57 255.65 376.97 263.81C363.66 283.2 343.63 297.42 322.32 297.92C283.92 298.83 255.25 253.53 254.36 215.7C253.46 177.87 283.92 146.42 322.32 145.51C360.72 144.61 392.62 174.59 393.51 212.42Z" id="c3yShz9gdY"></path><path d="M334.75 174.6L367.08 181.07" id="b2GakdXrGz"></path><path d="M388.15 233.15C387.66 234.86 386.57 236.06 385.73 235.82C384.89 235.57 384.6 233.98 385.1 232.27C385.59 230.55 386.68 229.36 387.52 229.6C388.36 229.85 388.65 231.43 388.15 233.15Z" id="a4gm31p5z8"></path><path d="M348.81 207.79C348.81 209.68 347.28 211.22 345.39 211.22C343.51 211.22 341.98 209.68 341.98 207.79C341.98 205.9 343.51 204.36 345.39 204.36C347.28 204.36 348.81 205.9 348.81 207.79Z" id="e6ylTbcevj"></path><path d="M306.83 211.92C306.83 217.83 301.17 222.63 294.2 222.63C287.22 222.63 281.56 217.83 281.56 211.92C281.56 206.01 287.22 201.21 294.2 201.21C301.17 201.21 306.83 206.01 306.83 211.92Z" id="f1WgSnPSMR"></path><path d="M259.9 191L265.56 175.69L276.84 161.45L295.43 153.85L316.1 151.91L333.94 153.04L353.48 159.05L369.18 166.29L380.13 177.01L390.79 193.56L393.53 224.7L400.97 174.6C389.93 161.08 383.02 152.62 380.26 149.24C374.13 141.73 365.89 136.21 356.6 133.42C349.57 131.3 347.18 130.58 341.26 128.79C328.35 124.9 314.57 124.96 301.69 128.95C290.97 132.28 288.65 133 280.44 135.54C260.69 141.67 246.25 158.64 243.36 179.12C241.62 191.47 237.26 222.36 230.29 271.79C256.33 280.46 272.6 285.89 279.11 288.06C279.22 288.09 279.32 288 279.3 287.89C276.72 274.97 270.25 242.67 259.9 191Z" id="a2eH1B2NS"></path><path d="M393.18 229.23C393.37 232.17 392.58 232.75 392.08 234.63C390.92 238.99 387.41 241.38 386.08 241.03C384.76 240.67 384.62 236.84 385.79 232.48C386.95 228.12 390.26 225.92 391.59 226.27C392.34 226.47 393 226.29 393.18 229.23Z" id="a65Vs7Go0Q"></path><path d="M301.03 207.79C301.03 209.68 299.5 211.22 297.61 211.22C295.73 211.22 294.2 209.68 294.2 207.79C294.2 205.9 295.73 204.36 297.61 204.36C299.5 204.36 301.03 205.9 301.03 207.79Z" id="bvJ9d06l4"></path><path d="M362.04 211.92C362.04 217.83 356.38 222.63 349.4 222.63C342.43 222.63 336.76 217.83 336.76 211.92C336.76 206.01 342.43 201.21 349.4 201.21C356.38 201.21 362.04 206.01 362.04 211.92Z" id="c5Q8BRG1eR"></path><path d="M395.78 236.05C392.76 244.18 387.66 249.8 384.4 248.59C381.14 247.38 380.95 239.8 383.97 231.67C386.99 223.53 392.08 217.92 395.34 219.13C398.6 220.34 398.8 227.92 395.78 236.05Z" id="b44leGLbMg"></path><path d="M391.22 241.27C391.22 241.68 390.88 242.02 390.47 242.02C390.05 242.02 389.72 241.68 389.72 241.27C389.72 240.85 390.05 240.52 390.47 240.52C390.88 240.52 391.22 240.85 391.22 241.27Z" id="beq577FfY"></path><path d="M291.95 216.18C291.95 217.06 291.24 217.77 290.36 217.77C289.48 217.77 288.77 217.06 288.77 216.18C288.77 215.3 289.48 214.59 290.36 214.59C291.24 214.59 291.95 215.3 291.95 216.18Z" id="cSORZRyM"></path><path d="M303.29 211.92C303.29 216.44 299.21 220.1 294.2 220.1C289.18 220.1 285.11 216.44 285.11 211.92C285.11 207.4 289.18 203.74 294.2 203.74C299.21 203.74 303.29 207.4 303.29 211.92Z" id="e2ZpoM54y"></path><path d="M388.85 244.91C388.85 246.02 387.96 246.91 386.85 246.91C385.75 246.91 384.85 246.02 384.85 244.91C384.85 243.81 385.75 242.91 386.85 242.91C387.96 242.91 388.85 243.81 388.85 244.91Z" id="aKnrfaNt"></path><path d="M388.1 244.91C388.1 245.6 387.54 246.16 386.85 246.16C386.16 246.16 385.6 245.6 385.6 244.91C385.6 244.22 386.16 243.66 386.85 243.66C387.54 243.66 388.1 244.22 388.1 244.91Z" id="fVTGZ5zd0"></path><path d="M358.49 211.92C358.49 216.44 354.42 220.1 349.4 220.1C344.38 220.1 340.31 216.44 340.31 211.92C340.31 207.4 344.38 203.74 349.4 203.74C354.42 203.74 358.49 207.4 358.49 211.92Z" id="a549ZouAAk"></path><path d="M397.07 222.89C397.07 223.44 396.62 223.89 396.07 223.89C395.52 223.89 395.07 223.44 395.07 222.89C395.07 222.34 395.52 221.89 396.07 221.89C396.62 221.89 397.07 222.34 397.07 222.89Z" id="ancP7mVpr"></path><path d="M391.72 241.27C391.72 241.96 391.16 242.52 390.47 242.52C389.78 242.52 389.22 241.96 389.22 241.27C389.22 240.58 389.78 240.02 390.47 240.02C391.16 240.02 391.72 240.58 391.72 241.27Z" id="c51wOfXJPz"></path><path d="M394.1 237.51C394.1 238.2 393.54 238.76 392.85 238.76C392.16 238.76 391.6 238.2 391.6 237.51C391.6 236.82 392.16 236.26 392.85 236.26C393.54 236.26 394.1 236.82 394.1 237.51Z" id="b4v34jPa8S"></path><path d="M354.1 216.18C354.1 217.06 353.39 217.77 352.51 217.77C351.63 217.77 350.92 217.06 350.92 216.18C350.92 215.3 351.63 214.59 352.51 214.59C353.39 214.59 354.1 215.3 354.1 216.18Z" id="b121Ltzprv"></path><path d="" id="b31Ho2vseo"></path><path d="M310.96 193.58L281.56 196.76" id="d2fNBoSUII"></path></defs><g><g><g><use xlink:href="#c3yShz9gdY" opacity="1" fill="#f9dac8" fill-opacity="1"></use></g><g><use xlink:href="#b2GakdXrGz" opacity="1" fill="#cf9c9c" fill-opacity="0.85"></use><g><use xlink:href="#b2GakdXrGz" opacity="1" fill-opacity="0" stroke="#000000" stroke-width="3" stroke-opacity="0.85"></use></g></g><g><use xlink:href="#a4gm31p5z8" opacity="1" fill="#f9dac8" fill-opacity="1"></use></g><g><use xlink:href="#e6ylTbcevj" opacity="1" fill="#ffffff" fill-opacity="1"></use></g><g><use xlink:href="#f1WgSnPSMR" opacity="1" fill="#ffffff" fill-opacity="1"></use></g><g><use xlink:href="#a2eH1B2NS" opacity="1" fill="#000000" fill-opacity="1"></use><g><use xlink:href="#a2eH1B2NS" opacity="1" fill-opacity="0" stroke="#000000" stroke-width="1" stroke-opacity="0.85"></use></g></g><g><use xlink:href="#a65Vs7Go0Q" opacity="1" fill="#f8d4bf" fill-opacity="1"></use></g><g><use xlink:href="#bvJ9d06l4" opacity="1" fill="#ffffff" fill-opacity="1"></use></g><g><use xlink:href="#c5Q8BRG1eR" opacity="1" fill="#ffffff" fill-opacity="1"></use></g><g><use xlink:href="#b44leGLbMg" opacity="1" fill="#f9dac8" fill-opacity="1"></use></g><g><use xlink:href="#beq577FfY" opacity="1" fill="#f9dac8" fill-opacity="1"></use></g><g><use xlink:href="#cSORZRyM" opacity="1" fill="#ffffff" fill-opacity="1"></use></g><g><use xlink:href="#e2ZpoM54y" opacity="1" fill="#3c1f00" fill-opacity="1"></use></g><g><use xlink:href="#aKnrfaNt" opacity="1" fill="#cfcdcd" fill-opacity="1"></use></g><g><use xlink:href="#fVTGZ5zd0" opacity="1" fill="#f9dac8" fill-opacity="1"></use></g><g><use xlink:href="#a549ZouAAk" opacity="1" fill="#3c1f00" fill-opacity="1"></use></g><g><use xlink:href="#ancP7mVpr" opacity="1" fill="#cfcdcd" fill-opacity="1"></use></g><g><use xlink:href="#c51wOfXJPz" opacity="1" fill="#cfcdcd" fill-opacity="1"></use></g><g><use xlink:href="#b4v34jPa8S" opacity="1" fill="#cfcdcd" fill-opacity="1"></use></g><g><use xlink:href="#b121Ltzprv" opacity="1" fill="#ffffff" fill-opacity="1"></use></g><g><g><use xlink:href="#b31Ho2vseo" opacity="1" fill-opacity="0" stroke="#d5acac" stroke-width="1" stroke-opacity="0.85"></use></g></g><g><g><use xlink:href="#d2fNBoSUII" opacity="1" fill-opacity="0" stroke="#040404" stroke-width="3" stroke-opacity="0.85"></use></g></g></g></g></svg>