<?xml version="1.0" encoding="UTF-8" standalone="no"?>
<!DOCTYPE svg PUBLIC "-//W3C//DTD SVG 1.1//EN" "http://www.w3.org/Graphics/SVG/1.1/DTD/svg11.dtd">
<svg version="1.1" xmlns="http://www.w3.org/2000/svg" xmlns:xlink="http://www.w3.org/1999/xlink" preserveAspectRatio="xMidYMid meet" viewBox="190.38985492983755 167.6495474477416 235.1966700324532 234.52411967626927" width="400" height="393.75"><defs><path d="M385.87 313.65C386.06 321.65 386.29 329.63 382.87 337.47C379.08 346.14 374.93 356.88 369.33 365.04C356.02 384.43 335.99 398.66 314.68 399.16C276.28 400.07 247.61 354.77 246.72 316.94C245.82 279.11 276.28 247.66 314.68 246.75C353.08 245.84 384.98 275.82 385.87 313.65Z" id="a9I2jXPhjG"></path><path d="M299.19 313.16C299.19 319.07 293.53 323.87 286.56 323.87C279.58 323.87 273.92 319.07 273.92 313.16C273.92 307.24 279.58 302.44 286.56 302.44C293.53 302.44 299.19 307.24 299.19 313.16Z" id="c16JKJHPfF"></path><path d="M354.4 313.16C354.4 319.07 348.74 323.87 341.76 323.87C334.79 323.87 329.12 319.07 329.12 313.16C329.12 307.24 334.79 302.44 341.76 302.44C348.74 302.44 354.4 307.24 354.4 313.16Z" id="a1fcNjvm9q"></path><path d="M295.65 313.16C295.65 317.67 291.57 321.34 286.56 321.34C281.54 321.34 277.47 317.67 277.47 313.16C277.47 308.64 281.54 304.97 286.56 304.97C291.57 304.97 295.65 308.64 295.65 313.16Z" id="hkrvvy4rC"></path><path d="M350.85 313.16C350.85 317.67 346.78 321.34 341.76 321.34C336.74 321.34 332.67 317.67 332.67 313.16C332.67 308.64 336.74 304.97 341.76 304.97C346.78 304.97 350.85 308.64 350.85 313.16Z" id="b12AXOpMTU"></path><path d="M293.39 309.02C293.39 310.92 291.86 312.45 289.97 312.45C288.09 312.45 286.56 310.92 286.56 309.02C286.56 307.13 288.09 305.6 289.97 305.6C291.86 305.6 293.39 307.13 293.39 309.02Z" id="buBYZFJcM"></path><path d="M341.17 309.02C341.17 310.92 339.64 312.45 337.75 312.45C335.87 312.45 334.34 310.92 334.34 309.02C334.34 307.13 335.87 305.6 337.75 305.6C339.64 305.6 341.17 307.13 341.17 309.02Z" id="a3EJ7tzq1V"></path><path d="M284.31 317.42C284.31 318.3 283.6 319.01 282.72 319.01C281.84 319.01 281.13 318.3 281.13 317.42C281.13 316.54 281.84 315.83 282.72 315.83C283.6 315.83 284.31 316.54 284.31 317.42Z" id="b1RlFGogUu"></path><path d="M346.46 317.42C346.46 318.3 345.74 319.01 344.87 319.01C343.99 319.01 343.28 318.3 343.28 317.42C343.28 316.54 343.99 315.83 344.87 315.83C345.74 315.83 346.46 316.54 346.46 317.42Z" id="ac7CWG0JI"></path><path d="" id="a7jznEd5ay"></path><path d="M303.32 294.82L273.92 298" id="ah8R6rWY"></path><path d="M327.11 275.84L359.44 282.3" id="aNN9JtxOP"></path><path d="M252.26 292.23L257.92 276.93L269.2 262.68L287.79 255.09L308.46 253.15L326.3 254.28L345.84 260.29L361.54 267.53L372.49 278.25L383.15 294.8L385.89 325.94L393.33 275.84C382.29 262.31 375.38 253.86 372.62 250.48C366.49 242.96 358.25 237.45 348.96 234.65C341.93 232.53 339.54 231.81 333.62 230.03C320.71 226.14 306.93 226.19 294.04 230.19C283.33 233.51 281.01 234.23 272.8 236.78C253.05 242.9 238.61 259.88 235.72 280.35C233.98 292.71 229.62 323.6 222.65 373.02C248.69 381.7 264.96 387.12 271.47 389.29C271.58 389.33 271.68 389.24 271.66 389.12C269.07 376.21 262.61 343.91 252.26 292.23Z" id="iA3Peinhn"></path><path d="M388.14 337.29C385.12 345.42 380.02 351.04 376.76 349.83C373.5 348.62 373.31 341.03 376.33 332.9C379.35 324.77 384.44 319.15 387.7 320.36C390.96 321.57 391.16 329.16 388.14 337.29Z" id="a1bh0rHDaS"></path><path d="M396.88 357.59C397.03 364.24 392.26 369.72 386.21 369.83C380.17 369.93 375.13 364.62 374.97 357.97C374.82 351.32 379.6 345.83 385.64 345.73C391.68 345.63 396.72 350.94 396.88 357.59Z" id="g7YF7MNxE"></path><path d="M384.08 342.5C384.08 343.19 383.52 343.75 382.83 343.75C382.14 343.75 381.58 343.19 381.58 342.5C381.58 341.81 382.14 341.25 382.83 341.25C383.52 341.25 384.08 341.81 384.08 342.5Z" id="e47ouRcuN"></path><path d="M386.46 338.74C386.46 339.43 385.9 339.99 385.21 339.99C384.52 339.99 383.96 339.43 383.96 338.74C383.96 338.05 384.52 337.49 385.21 337.49C385.9 337.49 386.46 338.05 386.46 338.74Z" id="c2QWZWQBxW"></path><path d="M389.43 324.12C389.43 324.68 388.98 325.12 388.43 325.12C387.88 325.12 387.43 324.68 387.43 324.12C387.43 323.57 387.88 323.12 388.43 323.12C388.98 323.12 389.43 323.57 389.43 324.12Z" id="d16moyBQRi"></path><path d="M383.58 342.5C383.58 342.92 383.24 343.25 382.83 343.25C382.41 343.25 382.08 342.92 382.08 342.5C382.08 342.09 382.41 341.75 382.83 341.75C383.24 341.75 383.58 342.09 383.58 342.5Z" id="d7UouFLVm"></path><path d="M385.54 330.47C385.73 333.41 384.94 333.99 384.44 335.86C383.28 340.23 379.77 342.62 378.44 342.26C377.12 341.91 376.98 338.08 378.15 333.72C379.31 329.35 382.62 327.16 383.95 327.51C384.7 327.71 385.36 327.52 385.54 330.47Z" id="b6329VWjBJ"></path><path d="M380.51 334.39C380.02 336.1 378.93 337.29 378.09 337.05C377.25 336.81 376.96 335.22 377.46 333.5C377.95 331.79 379.03 330.6 379.88 330.84C380.72 331.08 381.01 332.67 380.51 334.39Z" id="bVspGBscu"></path><path d="M238.07 259.2L384.79 247.61L385.77 259.75L239.05 271.35L238.07 259.2Z" id="aZrN6zvH"></path><path d="M223.56 286.91C222.42 269.74 229.66 259.71 245.26 256.81" id="cyCOcwl2"></path><path d="M244.85 256.56C243.44 277.77 236.19 287.68 223.12 286.27" id="b18pKXaQLX"></path><path d="M364.64 188.03C376.42 204.73 387.53 214.76 397.96 218.13C407.21 221.12 416.11 218.62 424.66 210.65C425.12 210.22 425.82 210.77 425.51 211.31C422.91 215.93 416.42 227.47 406.02 245.93L386.02 247.51L310.71 253.46L222.65 260.42C205.56 244.83 194.87 235.09 190.6 231.19C190.05 230.68 190.69 229.81 191.34 230.19C200.91 235.72 209.85 236.44 218.15 232.35C228.27 227.35 237.89 215.68 247.02 197.32L247.02 197.32C264.05 182.06 277.65 172.93 287.82 169.95C293.04 168.42 300 187.54 305.38 187.12C309.19 186.82 313.05 167.4 316.87 167.65C328.47 168.43 344.4 175.22 364.64 188.03L364.64 188.03Z" id="j4bKKZppDk"></path><path d="M238.64 296.3C232.62 280.33 236.54 268.22 250.41 259.96" id="cQUsuOI"></path><path d="M249.95 259.86C254.73 280.58 250.77 292.58 238.05 295.85" id="g52xcfwEgl"></path><path d="M323.92 201.35C325.16 202.67 325.21 204.71 324.03 206.07C318.7 212.26 304.77 228.4 299.44 234.59C298.33 235.88 296.34 235.93 295.17 234.69C294.73 234.23 295.61 235.15 295.17 234.69C293.93 233.38 293.88 231.34 295.06 229.97C300.39 223.78 314.32 207.64 319.65 201.45C320.76 200.16 322.75 200.12 323.92 201.35C324.36 201.82 323.48 200.89 323.92 201.35Z" id="f31AMzSrlD"></path><path d="M325.4 204.18C323.74 206.1 320.56 205.72 318.3 203.34C316.04 200.95 315.55 197.45 317.2 195.53C318.86 193.61 322.04 193.99 324.3 196.37C326.56 198.76 327.06 202.25 325.4 204.18Z" id="cTl0pzlQN"></path><path d="M329.5 208.5C327.84 210.42 324.66 210.04 322.4 207.66C320.13 205.27 319.64 201.78 321.3 199.85C322.96 197.93 326.14 198.31 328.4 200.69C330.66 203.08 331.15 206.58 329.5 208.5Z" id="b1mVyNZQNd"></path><path d="M296.05 238.21C294.39 240.13 291.21 239.75 288.95 237.37C286.69 234.98 286.2 231.49 287.85 229.56C289.51 227.64 292.69 228.02 294.95 230.4C297.21 232.79 297.71 236.29 296.05 238.21Z" id="b1ECbAlSvg"></path><path d="M300.15 242.53C298.49 244.45 295.31 244.07 293.05 241.69C290.78 239.3 290.29 235.81 291.95 233.89C293.61 231.96 296.79 232.34 299.05 234.73C301.31 237.11 301.8 240.61 300.15 242.53Z" id="d69zT1bC0"></path><path d="M326.55 234.09C327.57 232.6 327.29 230.58 325.91 229.42C319.65 224.15 303.32 210.38 297.07 205.11C295.77 204.02 293.8 204.29 292.84 205.69C292.48 206.22 293.2 205.17 292.84 205.69C291.82 207.18 292.1 209.2 293.48 210.36C299.73 215.63 316.07 229.4 322.32 234.67C323.62 235.76 325.59 235.49 326.55 234.09C326.91 233.56 326.19 234.61 326.55 234.09Z" id="d29sRiqSXL"></path><path d="M327.56 231.07C325.61 229.43 322.53 230.31 320.68 233.02C318.83 235.73 318.9 239.26 320.85 240.89C322.79 242.53 325.87 241.66 327.72 238.95C329.57 236.24 329.5 232.71 327.56 231.07Z" id="a3oDA6J0X"></path><path d="M330.91 226.16C328.97 224.52 325.89 225.39 324.04 228.11C322.18 230.82 322.26 234.35 324.2 235.98C326.14 237.62 329.23 236.75 331.08 234.04C332.93 231.33 332.86 227.8 330.91 226.16Z" id="a1fhHA8Bue"></path><path d="M293.15 202.08C291.2 200.44 288.12 201.31 286.27 204.02C284.42 206.73 284.49 210.26 286.43 211.9C288.38 213.54 291.46 212.67 293.31 209.96C295.16 207.25 295.09 203.72 293.15 202.08Z" id="a15WEtKcuR"></path><path d="M296.5 197.17C294.56 195.53 291.48 196.4 289.63 199.11C287.77 201.82 287.85 205.35 289.79 206.99C291.73 208.63 294.82 207.76 296.67 205.05C298.52 202.33 298.45 198.81 296.5 197.17Z" id="h1Y5yE6PI8"></path><path d="M303.65 322.88C299.16 330.66 289.19 333.33 281.41 328.84C273.63 324.34 270.96 314.38 275.45 306.6C277.54 302.98 280.27 301.78 283.95 300.58C288.19 299.2 293.53 298.24 297.69 300.64C305.47 305.13 308.14 315.1 303.65 322.88Z" id="d6ncgxufFV"></path><path d="M353.36 263.65L244.83 322.87" id="aj50YaSvV"></path></defs><g><g><use xlink:href="#a9I2jXPhjG" opacity="1" fill="#f9dac8" fill-opacity="1"></use></g><g><use xlink:href="#c16JKJHPfF" opacity="1" fill="#ffffff" fill-opacity="1"></use></g><g><use xlink:href="#a1fcNjvm9q" opacity="1" fill="#ffffff" fill-opacity="1"></use></g><g><use xlink:href="#hkrvvy4rC" opacity="1" fill="#3c1f00" fill-opacity="1"></use></g><g><use xlink:href="#b12AXOpMTU" opacity="1" fill="#3c1f00" fill-opacity="1"></use></g><g><use xlink:href="#buBYZFJcM" opacity="1" fill="#ffffff" fill-opacity="1"></use></g><g><use xlink:href="#a3EJ7tzq1V" opacity="1" fill="#ffffff" fill-opacity="1"></use></g><g><use xlink:href="#b1RlFGogUu" opacity="1" fill="#ffffff" fill-opacity="1"></use></g><g><use xlink:href="#ac7CWG0JI" opacity="1" fill="#ffffff" fill-opacity="1"></use></g><g><g><use xlink:href="#a7jznEd5ay" opacity="1" fill-opacity="0" stroke="#d5acac" stroke-width="1" stroke-opacity="0.85"></use></g></g><g><g><use xlink:href="#ah8R6rWY" opacity="1" fill-opacity="0" stroke="#040404" stroke-width="3" stroke-opacity="0.85"></use></g></g><g><use xlink:href="#aNN9JtxOP" opacity="1" fill="#cf9c9c" fill-opacity="0.85"></use><g><use xlink:href="#aNN9JtxOP" opacity="1" fill-opacity="0" stroke="#000000" stroke-width="3" stroke-opacity="0.85"></use></g></g><g><use xlink:href="#iA3Peinhn" opacity="1" fill="#000000" fill-opacity="1"></use><g><use xlink:href="#iA3Peinhn" opacity="1" fill-opacity="0" stroke="#000000" stroke-width="1" stroke-opacity="0.85"></use></g></g><g><use xlink:href="#a1bh0rHDaS" opacity="1" fill="#f9dac8" fill-opacity="1"></use></g><g><use xlink:href="#g7YF7MNxE" opacity="1" fill="#f3eb67" fill-opacity="0"></use><g><use xlink:href="#g7YF7MNxE" opacity="1" fill-opacity="0" stroke="#f9e30a" stroke-width="2" stroke-opacity="0.85"></use></g></g><g><use xlink:href="#e47ouRcuN" opacity="1" fill="#cfcdcd" fill-opacity="1"></use></g><g><use xlink:href="#c2QWZWQBxW" opacity="1" fill="#cfcdcd" fill-opacity="1"></use></g><g><use xlink:href="#d16moyBQRi" opacity="1" fill="#cfcdcd" fill-opacity="1"></use></g><g><use xlink:href="#d7UouFLVm" opacity="1" fill="#f9dac8" fill-opacity="1"></use></g><g><use xlink:href="#b6329VWjBJ" opacity="1" fill="#f8d4bf" fill-opacity="1"></use></g><g><use xlink:href="#bVspGBscu" opacity="1" fill="#f9dac8" fill-opacity="1"></use></g><g><g><use xlink:href="#aZrN6zvH" opacity="1" fill="#ad342c" fill-opacity="1"></use></g><g><g><use xlink:href="#cyCOcwl2" opacity="1" fill="#ad342c" fill-opacity="1"></use><g><use xlink:href="#cyCOcwl2" opacity="1" fill-opacity="0" stroke="#ad342c" stroke-width="1" stroke-opacity="1"></use></g></g><g><use xlink:href="#b18pKXaQLX" opacity="1" fill="#ad342c" fill-opacity="1"></use><g><use xlink:href="#b18pKXaQLX" opacity="1" fill-opacity="0" stroke="#ad342c" stroke-width="1" stroke-opacity="1"></use></g></g></g><g><use xlink:href="#j4bKKZppDk" opacity="1" fill="#000000" fill-opacity="1"></use><g><use xlink:href="#j4bKKZppDk" opacity="1" fill-opacity="0" stroke="#000000" stroke-width="2" stroke-opacity="0.24"></use></g></g><g><g><use xlink:href="#cQUsuOI" opacity="1" fill="#ad342c" fill-opacity="1"></use><g><use xlink:href="#cQUsuOI" opacity="1" fill-opacity="0" stroke="#ad342c" stroke-width="1" stroke-opacity="1"></use></g></g><g><use xlink:href="#g52xcfwEgl" opacity="1" fill="#ad342c" fill-opacity="1"></use><g><use xlink:href="#g52xcfwEgl" opacity="1" fill-opacity="0" stroke="#ad342c" stroke-width="1" stroke-opacity="1"></use></g></g></g><g><g><use xlink:href="#f31AMzSrlD" opacity="1" fill="#ffffff" fill-opacity="1"></use></g><g><g><use xlink:href="#cTl0pzlQN" opacity="1" fill="#ffffff" fill-opacity="1"></use></g><g><use xlink:href="#b1mVyNZQNd" opacity="1" fill="#ffffff" fill-opacity="1"></use></g></g><g><g><use xlink:href="#b1ECbAlSvg" opacity="1" fill="#ffffff" fill-opacity="1"></use></g><g><use xlink:href="#d69zT1bC0" opacity="1" fill="#ffffff" fill-opacity="1"></use></g></g></g><g><g><use xlink:href="#d29sRiqSXL" opacity="1" fill="#ffffff" fill-opacity="1"></use></g><g><g><use xlink:href="#a3oDA6J0X" opacity="1" fill="#ffffff" fill-opacity="1"></use></g><g><use xlink:href="#a1fhHA8Bue" opacity="1" fill="#ffffff" fill-opacity="1"></use></g></g><g><g><use xlink:href="#a15WEtKcuR" opacity="1" fill="#ffffff" fill-opacity="1"></use></g><g><use xlink:href="#h1Y5yE6PI8" opacity="1" fill="#ffffff" fill-opacity="1"></use></g></g></g></g><g><g><use xlink:href="#d6ncgxufFV" opacity="1" fill="#000000" fill-opacity="1"></use></g><g><g><use xlink:href="#aj50YaSvV" opacity="1" fill-opacity="0" stroke="#000000" stroke-width="3" stroke-opacity="1"></use></g></g></g></g></svg>